<?xml version="1.0" encoding="UTF-8" standalone="no"?>
<svg
   xmlns:dc="http://purl.org/dc/elements/1.1/"
   xmlns:cc="http://creativecommons.org/ns#"
   xmlns:rdf="http://www.w3.org/1999/02/22-rdf-syntax-ns#"
   xmlns:svg="http://www.w3.org/2000/svg"
   xmlns="http://www.w3.org/2000/svg"
   xmlns:sodipodi="http://sodipodi.sourceforge.net/DTD/sodipodi-0.dtd"
   xmlns:inkscape="http://www.inkscape.org/namespaces/inkscape"
   width="225"
   height="128"
   viewBox="0 0 59.531243 33.866662"
   version="1.1"
   id="svg5"
   xml:space="preserve"
   inkscape:version="1.0.2 (e86c870879, 2021-01-15)"
   sodipodi:docname="logo.svg"><metadata
     id="metadata27"><rdf:RDF><cc:Work
         rdf:about=""><dc:format>image/svg+xml</dc:format><dc:type
           rdf:resource="http://purl.org/dc/dcmitype/StillImage" /></cc:Work></rdf:RDF></metadata><sodipodi:namedview
     id="namedview7"
     pagecolor="#ffffff"
     bordercolor="#666666"
     borderopacity="1.0"
     inkscape:showpageshadow="2"
     inkscape:pageopacity="0.0"
     inkscape:pagecheckerboard="0"
     inkscape:deskcolor="#d1d1d1"
     inkscape:document-units="mm"
     showgrid="false"
     inkscape:zoom="1.5037598"
     inkscape:cx="139.17678"
     inkscape:cy="31.371175"
     inkscape:window-width="1366"
     inkscape:window-height="705"
     inkscape:window-x="0"
     inkscape:window-y="26"
     inkscape:window-maximized="1"
     inkscape:current-layer="layer1"
     inkscape:document-rotation="0" /><defs
     id="defs2">
	
</defs><g
     inkscape:label="Layer 1"
     inkscape:groupmode="layer"
     id="layer1"><rect
       style="fill:#1abc9c;fill-opacity:1;stroke:none;stroke-width:0.677434"
       id="rect10752"
       width="42.256813"
       height="9.6291142"
       x="14.45631"
       y="19.226702"
       ry="0"
       inkscape:export-filename="../aa1524e5/logo.png"
       inkscape:export-xdpi="256"
       inkscape:export-ydpi="256" /><rect
       style="fill:#1a252f;fill-opacity:1;stroke:none;stroke-width:0.157029;stroke-dasharray:none"
       id="rect849"
       width="42.011021"
       height="9.6291142"
       x="14.679111"
       y="9.5387735"
       ry="0" /><g
       aria-label="WAY ONE"
       id="text853"
       style="font-size:6.75439px;line-height:1.25;fill:#ffffff;fill-opacity:1;stroke-width:0.161302"
       transform="matrix(0.96715875,0,0,0.96715875,-2.0680749,-10.913819)"><path
         d="m 35.330434,23.740832 q 0.10807,0 0.195877,0.0743 0.09456,0.0743 0.09456,0.209387 0,0.04728 -0.01351,0.101315 l -1.438685,4.187722 q -0.02702,0.08105 -0.101316,0.128333 -0.06754,0.04053 -0.141842,0.04728 -0.08105,0 -0.155351,-0.04053 -0.0743,-0.04728 -0.114825,-0.135088 l -1.127983,-2.728773 0.05404,0.02026 -1.121228,2.70851 q -0.04053,0.08781 -0.114825,0.135088 -0.0743,0.04053 -0.155351,0.04053 -0.0743,-0.0068 -0.148597,-0.04728 -0.06754,-0.04728 -0.09456,-0.128333 L 29.50815,24.125832 q -0.01351,-0.05403 -0.01351,-0.09456 0,-0.135088 0.09456,-0.209386 0.101315,-0.08105 0.202631,-0.08105 0.08105,0 0.155351,0.04728 0.0743,0.04728 0.101316,0.128333 l 1.263071,3.728423 h -0.09456 l 1.100966,-2.722019 q 0.03377,-0.08105 0.101316,-0.128333 0.06754,-0.04728 0.155351,-0.04728 0.08105,0 0.148596,0.04728 0.0743,0.04728 0.101316,0.128333 l 1.067194,2.681493 -0.08105,0.03377 1.256317,-3.721669 q 0.02702,-0.08105 0.101315,-0.128333 0.0743,-0.04728 0.162106,-0.04728 z"
         style="font-weight:500;font-family:Quicksand;-inkscape-font-specification:'Quicksand Medium';fill:#ffffff;fill-opacity:1"
         id="path2149" /><path
         d="m 37.876828,24.463552 -1.587282,3.863511 q -0.02702,0.08105 -0.09456,0.128333 -0.06754,0.04728 -0.141842,0.04728 -0.128334,0 -0.189123,-0.06754 -0.06079,-0.06754 -0.06079,-0.162105 -0.0068,-0.04728 0.01351,-0.101316 l 1.749387,-4.255266 q 0.03377,-0.09456 0.101316,-0.135087 0.0743,-0.04728 0.162105,-0.04053 0.08781,0 0.155351,0.04728 0.0743,0.04728 0.101316,0.128333 l 1.742632,4.21474 q 0.02026,0.05403 0.02026,0.10807 0,0.121579 -0.08105,0.195877 -0.08105,0.06754 -0.182369,0.06754 -0.08105,0 -0.148596,-0.04728 -0.06754,-0.04728 -0.101316,-0.135088 l -1.607545,-3.863511 z m -1.249562,2.762545 0.229649,-0.526842 h 2.006054 l 0.101315,0.526842 z"
         style="font-weight:500;font-family:Quicksand;-inkscape-font-specification:'Quicksand Medium';fill:#ffffff;fill-opacity:1"
         id="path2151" /><path
         d="m 43.17901,23.734078 q 0.114824,0 0.189123,0.08781 0.08105,0.08105 0.08105,0.189123 0,0.04053 -0.01351,0.08781 -0.0068,0.04053 -0.03377,0.08105 l -1.567019,2.181668 0.08781,-0.330965 v 2.181668 q 0,0.114825 -0.08105,0.195877 -0.0743,0.08105 -0.182369,0.08105 -0.121579,0 -0.202632,-0.08105 -0.0743,-0.08105 -0.0743,-0.195877 v -2.127633 l 0.04728,0.175615 -1.519738,-2.053335 q -0.04053,-0.05403 -0.06079,-0.101316 -0.01351,-0.05403 -0.01351,-0.101316 0,-0.114824 0.09456,-0.189123 0.09456,-0.08105 0.189123,-0.08105 0.135088,0 0.222895,0.128333 l 1.398159,1.918247 -0.128334,-0.02026 1.344124,-1.891229 q 0.08781,-0.135088 0.222895,-0.135088 z"
         style="font-weight:500;font-family:Quicksand;-inkscape-font-specification:'Quicksand Medium';fill:#ffffff;fill-opacity:1"
         id="path2153" /><path
         d="m 50.284616,26.125132 q 0,0.520088 -0.16886,0.965877 -0.16886,0.439036 -0.472807,0.770001 -0.303948,0.330965 -0.72272,0.513334 -0.418772,0.182368 -0.911843,0.182368 -0.499825,0 -0.918597,-0.182368 -0.412018,-0.182369 -0.715965,-0.513334 -0.303948,-0.330965 -0.472807,-0.770001 -0.16886,-0.445789 -0.16886,-0.965877 0,-0.526843 0.16886,-0.965878 0.168859,-0.44579 0.472807,-0.77 0.303947,-0.330966 0.715965,-0.513334 0.418772,-0.182369 0.918597,-0.182369 0.493071,0 0.911843,0.182369 0.418772,0.182368 0.72272,0.513334 0.303947,0.32421 0.472807,0.77 0.16886,0.439035 0.16886,0.965878 z m -0.580878,0 q 0,-0.55386 -0.222895,-0.979387 -0.21614,-0.425526 -0.594386,-0.668684 -0.378246,-0.243158 -0.878071,-0.243158 -0.499825,0 -0.884825,0.243158 -0.378246,0.243158 -0.594386,0.668684 -0.216141,0.425527 -0.216141,0.979387 0,0.547105 0.216141,0.979386 0.21614,0.425527 0.594386,0.668685 0.385,0.243158 0.884825,0.243158 0.499825,0 0.878071,-0.243158 0.378246,-0.243158 0.594386,-0.668685 0.222895,-0.432281 0.222895,-0.979386 z"
         style="font-weight:500;font-family:Quicksand;-inkscape-font-specification:'Quicksand Medium';fill:#ffffff;fill-opacity:1"
         id="path2155" /><path
         d="m 54.681722,23.761095 q 0.114825,0 0.182369,0.0743 0.06754,0.06754 0.06754,0.175614 v 4.194476 q 0,0.128333 -0.08105,0.209386 -0.08105,0.0743 -0.195877,0.0743 -0.06079,0 -0.121579,-0.02026 -0.06079,-0.02702 -0.09456,-0.06754 l -2.890879,-3.822985 0.135088,-0.08105 v 3.741932 q 0,0.10807 -0.0743,0.182368 -0.06754,0.06754 -0.182369,0.06754 -0.10807,0 -0.175614,-0.06754 -0.06754,-0.0743 -0.06754,-0.182368 v -4.207985 q 0,-0.121579 0.0743,-0.195877 0.08105,-0.0743 0.189123,-0.0743 0.06079,0 0.121579,0.02702 0.06754,0.02026 0.101315,0.06754 l 2.850353,3.768949 -0.08781,0.108071 v -3.721669 q 0,-0.10807 0.06754,-0.175614 0.0743,-0.0743 0.182368,-0.0743 z"
         style="font-weight:500;font-family:Quicksand;-inkscape-font-specification:'Quicksand Medium';fill:#ffffff;fill-opacity:1"
         id="path2157" /><path
         d="m 56.383826,23.761095 h 2.404563 q 0.114824,0 0.195877,0.0743 0.08105,0.0743 0.08105,0.189123 0,0.114824 -0.08105,0.189122 -0.08105,0.06754 -0.195877,0.06754 h -2.174914 l 0.06079,-0.114824 v 1.70886 l -0.06754,-0.0743 h 1.87772 q 0.114825,0 0.195878,0.0743 0.08105,0.0743 0.08105,0.189123 0,0.114825 -0.08105,0.189123 -0.08105,0.06754 -0.195878,0.06754 h -1.857457 l 0.04728,-0.06079 v 1.749386 l -0.04053,-0.04728 h 2.15465 q 0.114824,0 0.195877,0.08105 0.08105,0.08105 0.08105,0.182369 0,0.114825 -0.08105,0.189123 -0.08105,0.0743 -0.195877,0.0743 h -2.404563 q -0.114825,0 -0.195877,-0.08105 -0.0743,-0.08105 -0.0743,-0.195877 v -4.180967 q 0,-0.114825 0.0743,-0.189123 0.08105,-0.08105 0.195877,-0.08105 z"
         style="font-weight:500;font-family:Quicksand;-inkscape-font-specification:'Quicksand Medium';fill:#ffffff;fill-opacity:1"
         id="path2159" /></g><path
       id="path900"
       style="fill:#1abc9c;fill-opacity:1;stroke:none;stroke-width:0.37035;stroke-dasharray:none"
       d="m 14.020807,0.791772 c -6.1772688,0 -11.2026805,5.0263163 -11.2026805,11.203756 0,5.946332 10.1646695,19.839151 10.5974695,20.427446 l 0.403711,0.549452 c 0.04719,0.06459 0.122342,0.102469 0.201419,0.102469 0.08032,0 0.155259,-0.03786 0.202871,-0.102469 l 0.403726,-0.549452 C 15.060366,31.834679 25.224444,17.94186 25.224444,11.995528 25.224444,5.8180883 20.19812,0.791772 14.020659,0.791772 Z" /><path
       style="fill:#1a252f;fill-opacity:1;stroke-width:0.105061"
       d="M 6.563,17.564994 C 6.4870877,17.443438 6.4326734,16.99992 6.4326734,16.50274 v -0.853547 l 0.2005974,0.248016 c 0.1909075,0.236055 0.2720889,0.249683 1.6809836,0.282252 l 1.480387,0.03415 v 0.576806 c 0,0.985932 0.0052,0.983236 -1.6594004,0.983236 -1.3248389,0 -1.4524923,-0.01681 -1.572241,-0.208693 z m 11.867711,0.08265 c -0.07111,-0.0711 -0.126067,-0.411478 -0.126067,-0.780021 v -0.65395 l 1.480387,-0.03415 c 1.408895,-0.03266 1.490084,-0.04614 1.680992,-0.28223 l 0.200604,-0.248024 v 0.828756 c 0,1.281627 -0.01881,1.295753 -1.718471,1.295753 -0.942083,0 -1.432078,-0.04066 -1.517445,-0.126074 z M 9.7946414,15.672483 V 15.252244 H 8.1070212 6.4194079 l 0.040814,-1.864841 c 0.022448,-1.025671 0.07744,-1.968443 0.1223194,-2.09505 0.075835,-0.214056 0.045853,-0.232477 -0.4271766,-0.26266 -0.6071087,-0.03875 -0.6670165,-0.17371 -0.3941713,-0.888131 0.2057001,-0.5386227 0.5832354,-0.7727724 1.245977,-0.7727724 0.2041005,0 0.3710911,-0.05126 0.3710911,-0.113957 0,-0.06259 0.2651637,-0.8072907 0.5892499,-1.6547191 0.390898,-1.0220789 0.695519,-1.6526741 0.9049,-1.873196 0.458871,-0.4832998 1.3648596,-0.849236 2.4777856,-1.0008052 0.905848,-0.1233717 0.96597,-0.1468892 0.96597,-0.3778912 0,-0.2724892 0.178257,-0.6630241 0.357174,-0.7824836 0.06355,-0.042439 0.687429,-0.077934 1.386325,-0.078814 1.452515,-0.00222 1.618477,0.078166 1.618477,0.7805948 V 4.6654606 L 14.70632,4.6327996 c -0.534504,-0.017921 -1.290945,-0.02355 -1.680991,-0.012225 -0.680971,0.019556 -0.709162,0.030891 -0.709162,0.2830515 v 0.26266 h 1.733514 1.733523 v -0.26266 c 0,-0.2226032 0.04874,-0.2626522 0.319605,-0.2626522 0.509979,0 1.883403,0.3125605 2.362051,0.5375565 0.592013,0.2782738 0.927817,0.6625192 1.182907,1.3535493 0.117327,0.31782 0.408045,1.080179 0.646039,1.6941536 l 0.432725,1.1163033 0.523661,0.05037 c 0.630574,0.06059 0.876391,0.2622227 1.092334,0.8959734 0.2047,0.600754 0.09516,0.760901 -0.520475,0.760901 h -0.44926 l -0.29108,-0.798077 c -0.263972,-0.7237607 -0.4789,-1.0097524 -0.638737,-0.8499164 -0.03244,0.03237 0.05585,0.4033477 0.196168,0.8243034 0.206507,0.619486 0.303287,0.776736 0.507809,0.825015 0.387772,0.09156 0.50244,0.662261 0.511632,2.546419 l 0.008,1.654727 h -1.73353 -1.733507 v 0.42025 0.420244 H 13.997089 9.7946114 Z m 0.5566366,-2.093177 c 0.316502,-0.120326 0.425577,-0.481707 0.210351,-0.696925 -0.461552,-0.461561 -2.2899066,-1.15022 -2.7997973,-1.054574 -0.3993038,0.07486 -0.4848403,0.24501 -0.4872331,0.968889 -0.00145,0.486033 0.1409412,0.654957 0.6558465,0.777196 0.4893143,0.116156 2.1199599,0.119815 2.4208329,0.0052 z m 9.721597,-8.1e-5 c 0.613234,-0.118505 0.701696,-0.235499 0.694919,-0.919158 -0.0074,-0.72348 -0.200115,-0.914322 -0.853621,-0.844318 -0.562333,0.06022 -2.491237,1.011272 -2.535279,1.249993 -0.018,0.09757 0.06481,0.274858 0.183857,0.393978 0.18659,0.186597 0.343893,0.215959 1.13588,0.212018 0.505602,-0.003 1.124021,-0.04407 1.374244,-0.09249 z M 18.313851,9.8887313 19.531267,9.6473433 19.299569,8.9039615 C 19.172131,8.4951019 18.919715,7.7792516 18.738621,7.313202 18.448977,6.5677083 18.362123,6.4432785 18.016379,6.2783982 16.819413,5.707614 11.906706,5.655254 10.281326,6.1959576 9.7915014,6.3589113 9.7204524,6.4251007 9.4693404,6.9523831 9.1961474,7.5259895 8.7219884,8.8513113 8.5994464,9.3838226 l -0.06392,0.2776817 1.181129,0.218863 c 1.5915596,0.2948947 1.8394796,0.3092047 4.8057576,0.2773777 2.18649,-0.02355 2.757289,-0.06392 3.791427,-0.2690007 z"
       id="path318" /><g
       aria-label="DROP TAXI"
       id="text857"
       style="font-size:6.75439px;line-height:1.25;fill:#1a252f;fill-opacity:1;stroke-width:0.171879"
       transform="matrix(0.96715875,0,0,0.96715875,-3.8504743,-10.913816)"><path
         d="m 29.35956,33.777989 q 0.49307,0 0.864562,0.189123 0.378245,0.182368 0.628158,0.513333 0.249912,0.330965 0.371491,0.763246 0.128334,0.425527 0.128334,0.898334 0,0.648422 -0.222895,1.188773 -0.222895,0.533597 -0.66193,0.857807 -0.439036,0.317457 -1.10772,0.317457 h -1.688598 q -0.114824,0 -0.195877,-0.08105 -0.0743,-0.08105 -0.0743,-0.195877 v -4.180968 q 0,-0.114824 0.0743,-0.189123 0.08105,-0.08105 0.195877,-0.08105 z m -0.06754,4.20123 q 0.520088,0 0.844298,-0.249912 0.330966,-0.249913 0.479562,-0.668685 0.155351,-0.418772 0.155351,-0.918597 0,-0.364737 -0.08781,-0.695702 Q 30.602371,35.108604 30.42,34.851937 30.244385,34.59527 29.9607,34.446673 29.68377,34.298077 29.292016,34.298077 h -1.38465 l 0.05403,-0.05403 v 3.802721 l -0.04053,-0.06754 z"
         style="font-weight:500;font-family:Quicksand;-inkscape-font-specification:'Quicksand Medium';fill:#1a252f;fill-opacity:1"
         id="path2162" /><path
         d="m 32.56113,38.506062 q -0.128333,0 -0.222895,-0.08105 -0.08781,-0.08105 -0.08781,-0.195877 v -4.180968 q 0,-0.114824 0.0743,-0.189123 0.08105,-0.08105 0.195877,-0.08105 h 1.864212 q 0.378245,0 0.682193,0.175614 0.303947,0.16886 0.479562,0.472807 0.182368,0.297193 0.182368,0.688948 0,0.283684 -0.10807,0.533597 -0.10807,0.243158 -0.297193,0.425526 -0.189123,0.175614 -0.432281,0.270176 l -0.148597,-0.10807 q 0.229649,0.05403 0.412018,0.195877 0.182369,0.135088 0.297193,0.351228 0.114825,0.209386 0.121579,0.493071 0.01351,0.249912 0.03377,0.398509 0.02026,0.148596 0.06079,0.236403 0.04053,0.08105 0.114824,0.128334 0.09456,0.06079 0.121579,0.162105 0.03377,0.101316 -0.03377,0.195877 -0.04053,0.06079 -0.114824,0.08781 -0.0743,0.02026 -0.148597,0.01351 -0.0743,-0.0068 -0.128333,-0.04053 -0.108071,-0.06079 -0.209386,-0.175614 -0.101316,-0.121579 -0.16886,-0.344474 -0.06754,-0.222895 -0.06754,-0.607895 0,-0.216141 -0.06754,-0.357983 -0.06754,-0.141842 -0.182368,-0.229649 -0.114825,-0.08781 -0.256667,-0.121579 -0.141842,-0.03377 -0.290439,-0.03377 H 32.72999 l 0.08105,-0.121579 v 1.762896 q 0,0.114824 -0.06754,0.195877 -0.06754,0.08105 -0.182369,0.08105 z m 0.16886,-2.404563 h 1.654826 q 0.195877,-0.01351 0.364737,-0.135088 0.175614,-0.121579 0.283684,-0.337719 0.114825,-0.222895 0.114825,-0.499825 0,-0.357983 -0.22965,-0.594387 -0.222895,-0.236403 -0.567368,-0.236403 h -1.594036 l 0.05403,-0.128334 v 2.053335 z"
         style="font-weight:500;font-family:Quicksand;-inkscape-font-specification:'Quicksand Medium';fill:#1a252f;fill-opacity:1"
         id="path2164" /><path
         d="m 41.010861,36.142025 q 0,0.520088 -0.168859,0.965878 -0.16886,0.439035 -0.472808,0.77 -0.303947,0.330965 -0.722719,0.513334 -0.418772,0.182368 -0.911843,0.182368 -0.499825,0 -0.918597,-0.182368 -0.412018,-0.182369 -0.715965,-0.513334 -0.303948,-0.330965 -0.472808,-0.77 -0.168859,-0.44579 -0.168859,-0.965878 0,-0.526842 0.168859,-0.965878 0.16886,-0.445789 0.472808,-0.77 0.303947,-0.330965 0.715965,-0.513334 0.418772,-0.182368 0.918597,-0.182368 0.493071,0 0.911843,0.182368 0.418772,0.182369 0.722719,0.513334 0.303948,0.324211 0.472808,0.77 0.168859,0.439036 0.168859,0.965878 z m -0.580877,0 q 0,-0.55386 -0.222895,-0.979386 -0.21614,-0.425527 -0.594386,-0.668685 -0.378246,-0.243158 -0.878071,-0.243158 -0.499825,0 -0.884825,0.243158 -0.378246,0.243158 -0.594386,0.668685 -0.216141,0.425526 -0.216141,0.979386 0,0.547106 0.216141,0.979387 0.21614,0.425526 0.594386,0.668684 0.385,0.243158 0.884825,0.243158 0.499825,0 0.878071,-0.243158 0.378246,-0.243158 0.594386,-0.668684 0.222895,-0.432281 0.222895,-0.979387 z"
         style="font-weight:500;font-family:Quicksand;-inkscape-font-specification:'Quicksand Medium';fill:#1a252f;fill-opacity:1"
         id="path2166" /><path
         d="m 43.759897,33.777989 q 0.371491,0 0.668685,0.182368 0.297193,0.182369 0.466052,0.499825 0.175615,0.317456 0.175615,0.72272 0,0.398509 -0.175615,0.722719 -0.168859,0.324211 -0.466052,0.513334 -0.297194,0.189123 -0.668685,0.189123 h -1.371141 l 0.04728,-0.08105 v 1.702107 q 0,0.114824 -0.0743,0.195877 -0.0743,0.08105 -0.189123,0.08105 -0.121579,0 -0.195877,-0.08105 -0.06754,-0.08105 -0.06754,-0.195877 v -4.180968 q 0,-0.114824 0.0743,-0.189123 0.08105,-0.08105 0.195878,-0.08105 z m 0,2.310001 q 0.222895,0 0.391755,-0.121579 0.168859,-0.121579 0.270175,-0.330965 0.101316,-0.209386 0.101316,-0.452544 0,-0.256667 -0.101316,-0.452544 -0.101316,-0.195878 -0.270175,-0.310702 -0.16886,-0.121579 -0.391755,-0.121579 h -1.371141 l 0.04728,-0.0743 v 1.931756 l -0.04728,-0.06754 z"
         style="font-weight:500;font-family:Quicksand;-inkscape-font-specification:'Quicksand Medium';fill:#1a252f;fill-opacity:1"
         id="path2168" /><path
         d="m 49.278225,38.506062 q -0.121579,0 -0.202632,-0.08105 -0.08105,-0.08105 -0.08105,-0.195877 v -4.174213 h 0.574123 v 4.174213 q 0,0.114824 -0.08105,0.195877 -0.08105,0.08105 -0.209386,0.08105 z m -1.567019,-4.21474 q -0.114824,0 -0.195877,-0.06754 -0.0743,-0.0743 -0.0743,-0.189122 0,-0.114825 0.0743,-0.182369 0.08105,-0.0743 0.195877,-0.0743 h 3.140792 q 0.114824,0 0.195877,0.0743 0.08105,0.06754 0.08105,0.182369 0,0.121579 -0.08105,0.189122 -0.08105,0.06754 -0.195877,0.06754 z"
         style="font-weight:500;font-family:Quicksand;-inkscape-font-specification:'Quicksand Medium';fill:#1a252f;fill-opacity:1"
         id="path2170" /><path
         d="m 53.236277,34.480445 -1.587282,3.863511 q -0.02702,0.08105 -0.09456,0.128334 -0.06754,0.04728 -0.141843,0.04728 -0.128333,0 -0.189122,-0.06754 -0.06079,-0.06754 -0.06079,-0.162105 -0.0068,-0.04728 0.01351,-0.101316 l 1.749387,-4.255265 q 0.03377,-0.09456 0.101316,-0.135088 0.0743,-0.04728 0.162105,-0.04053 0.08781,0 0.155351,0.04728 0.0743,0.04728 0.101316,0.128334 l 1.742632,4.214739 q 0.02026,0.05403 0.02026,0.10807 0,0.121579 -0.08105,0.195877 -0.08105,0.06754 -0.182369,0.06754 -0.08105,0 -0.148596,-0.04728 -0.06754,-0.04728 -0.101316,-0.135088 L 53.08768,34.473691 Z m -1.249562,2.762546 0.229649,-0.526843 h 2.006054 l 0.101315,0.526843 z"
         style="font-weight:500;font-family:Quicksand;-inkscape-font-specification:'Quicksand Medium';fill:#1a252f;fill-opacity:1"
         id="path2172" /><path
         d="m 59.0518,33.757726 q 0.101316,0 0.175614,0.0743 0.08105,0.0743 0.08105,0.16886 0,0.08781 -0.06079,0.168859 l -1.485966,2.006054 -0.303948,-0.425526 1.377896,-1.864212 q 0.08781,-0.128333 0.21614,-0.128333 z m -3.161054,0 q 0.141842,0 0.222895,0.114824 l 3.134037,4.221494 q 0.05403,0.08105 0.05403,0.16886 0,0.121579 -0.08781,0.195877 -0.08781,0.0743 -0.182369,0.0743 -0.135088,0 -0.222895,-0.114825 l -3.134037,-4.228248 q -0.05403,-0.06754 -0.05403,-0.162105 0,-0.114824 0.08105,-0.189123 0.08781,-0.08105 0.189123,-0.08105 z m -0.02702,4.775353 q -0.10807,0 -0.182368,-0.0743 -0.06754,-0.08105 -0.06754,-0.162106 0,-0.09456 0.06754,-0.182368 l 1.49272,-2.033071 0.290439,0.445789 -1.38465,1.884475 q -0.08105,0.121579 -0.216141,0.121579 z"
         style="font-weight:500;font-family:Quicksand;-inkscape-font-specification:'Quicksand Medium';fill:#1a252f;fill-opacity:1"
         id="path2174" /><path
         d="m 60.713377,38.229132 q 0,0.114824 -0.08781,0.195877 -0.08105,0.08105 -0.195877,0.08105 -0.128334,0 -0.202632,-0.08105 -0.0743,-0.08105 -0.0743,-0.195877 v -4.174213 q 0,-0.121579 0.08105,-0.195878 0.08105,-0.08105 0.202632,-0.08105 0.114825,0 0.195877,0.08105 0.08105,0.0743 0.08105,0.195878 z"
         style="font-weight:500;font-family:Quicksand;-inkscape-font-specification:'Quicksand Medium';fill:#1a252f;fill-opacity:1"
         id="path2176" /></g><path
       id="path35182"
       style="fill:#1a252f;fill-opacity:1;stroke:none;stroke-width:0.0244535;stroke-linecap:square;stroke-linejoin:round;stroke-miterlimit:4;stroke-dasharray:none;stroke-opacity:1"
       d="m 5.1721131,19.214893 c 0.3224413,0.647475 0.6669474,1.302008 1.0242269,1.955436 h 0.5808431 v -1.955436 z m 1.60507,1.955436 v 1.04128 c 0.1743142,0.306584 0.3504861,0.612006 0.5281332,0.91519 h 1.4278198 v -1.95647 z m 1.955953,0 H 10.689606 V 19.214893 H 8.7331361 Z m 1.9564699,0 v 1.95647 h 1.956469 v -1.95647 z m 1.956469,0 h 1.955953 v -1.955436 h -1.955953 z m 1.955953,0 v 1.95647 h 1.95647 v -1.95647 z m 1.95647,0 h 1.95647 v -1.955436 h -1.95647 z m 1.95647,0 v 1.95647 h 1.955953 v -1.95647 z m 1.955953,0 h 1.375626 c 0.198341,-0.36276 0.392168,-0.725717 0.580843,-1.087789 v -0.867647 h -1.956469 z m 0,1.95647 v 0.451652 c 0.08915,-0.150084 0.178025,-0.300395 0.26665,-0.451652 z m -1.955953,0 h -1.95647 v 1.955953 h 1.95647 z m 0,1.955953 v 1.653129 c 0.341699,-0.531015 0.691146,-1.084006 1.043347,-1.653129 z m -1.95647,0 h -1.95647 v 1.956469 h 1.95647 z m 0,1.956469 v 1.95647 h 0.466638 c 0.404851,-0.600066 0.839381,-1.254695 1.293978,-1.95647 z m 0,1.95647 h -1.95647 v 1.955953 h 1.076937 c 0.258839,-0.368595 0.553165,-0.790977 0.879533,-1.26814 z m -1.95647,1.955953 h -1.955953 v 0.400492 c 0.421968,0.595408 0.70575,0.984134 0.769462,1.070736 l 0.356568,0.485242 h 0.499194 l 0.330729,-0.450619 z m -1.955953,0 v -1.955953 h -1.628324 c 0.510621,0.756843 0.96924,1.419174 1.346171,1.955953 z m 0,-1.955953 h 1.955953 v -1.95647 h -1.955953 z m 0,-1.95647 v -1.956469 h -1.956469 v 1.956469 z m -1.956469,0 H 9.7237733 c 0.3345697,0.516483 0.6560417,1.002869 0.9658327,1.466578 z m 0,-1.956469 V 23.126799 H 8.7331361 v 1.955953 z m -1.9564699,0 H 8.4845725 c 0.083052,0.134202 0.1658302,0.268126 0.2485636,0.400492 z m 3.9129389,0 h 1.955953 v -1.955953 h -1.955953 z" /></g></svg>
