<?xml version="1.0" encoding="UTF-8" standalone="no"?>
<svg
   height="300"
   width="400"
   version="1.1"
   id="svg282"
   sodipodi:docname="slider.svg"
   inkscape:version="1.1.2 (0a00cf5339, 2022-02-04)"
   xml:space="preserve"
   xmlns:inkscape="http://www.inkscape.org/namespaces/inkscape"
   xmlns:sodipodi="http://sodipodi.sourceforge.net/DTD/sodipodi-0.dtd"
   xmlns="http://www.w3.org/2000/svg"
   xmlns:svg="http://www.w3.org/2000/svg"><defs
     id="defs286" /><sodipodi:namedview
     id="namedview284"
     pagecolor="#ffffff"
     bordercolor="#666666"
     borderopacity="1.0"
     inkscape:showpageshadow="2"
     inkscape:pageopacity="0.0"
     inkscape:pagecheckerboard="0"
     inkscape:deskcolor="#d1d1d1"
     showgrid="false"
     inkscape:zoom="0.70333336"
     inkscape:cx="266.58767"
     inkscape:cy="240.99525"
     inkscape:window-width="1366"
     inkscape:window-height="705"
     inkscape:window-x="0"
     inkscape:window-y="26"
     inkscape:window-maximized="1"
     inkscape:current-layer="svg282"
     inkscape:pageshadow="2" /><g
     id="g1425"
     transform="matrix(0.25696195,0,0,0.25696195,-3.7451302,-4.17717)"><circle
       style="fill:#34495e;fill-opacity:1;stroke-width:0.286402"
       id="path840"
       cx="800"
       cy="600"
       r="583.74402" /><g
       id="g28"><path
         d="m 680.8,282.32 v -0.45 c 0,-0.15 0,-0.3 0,-0.53 0,-3.99 0.53,-7.98 1.66,-11.9 5.27,-18.31 22.23,-31.04 41.21,-31.04 3.99,0 7.91,0.53 11.75,1.66 7.09,-10.33 17.63,-17.93 29.69,-21.4 4.82,-1.36 9.79,-2.11 14.84,-2.11 23.81,0 45.05,15.97 51.68,38.88 4.37,-2.42 9.34,-3.62 14.39,-3.62 16.8,0 30.36,13.64 30.36,30.36 v 0.15 z"
         fill="#ffffff"
         opacity="1"
         stroke-width="4"
         stroke="none"
         id="path20" /><path
         d="m 1072.94,183.93 v -0.38 c 0,-0.15 0,-0.3 0,-0.45 0,-9.34 3.62,-18.08 10.25,-24.64 6.55,-6.55 15.37,-10.24 24.63,-10.24 3.24,0 6.48,0.45 9.57,1.35 8.14,-11.9 21.7,-19.06 36.17,-19.06 8.81,0 17.25,2.64 24.56,7.61 14.91,10.17 22.07,28.1 18.08,45.73 V 184 Z"
         fill="#ffffff"
         opacity="1"
         stroke-width="4"
         stroke="none"
         id="path22" /><path
         d="m 1211.11,183.93 v -0.15 c 0,-13.64 11.08,-24.71 24.72,-24.71 13.63,0 24.71,11.07 24.71,24.71 v 0.15 z"
         fill="#ffffff"
         opacity="1"
         stroke-width="4"
         stroke="none"
         id="path24" /><path
         d="m 413.05,212.56 v -0.15 c -3.62,-15.97 2.86,-32.32 16.42,-41.51 6.63,-4.52 14.32,-6.86 22.3,-6.86 13.11,0 25.39,6.48 32.78,17.25 2.78,-0.83 5.72,-1.2 8.66,-1.2 17.48,0 31.64,14.24 31.64,31.64 0,0.15 0,0.23 0,0.38 v 0.37 h -111.8 z"
         fill="#ffffff"
         opacity="1"
         stroke-width="4"
         stroke="none"
         id="path26" /></g><g
       id="g50"><path
         d="m 241.2,497.8 h -35.4 v 237.7 h 35.4 z"
         fill="#231f20"
         opacity="1"
         stroke-width="4"
         stroke="none"
         id="path30" /><path
         d="m 222,539.2 c -5.3,0 -10.7,-0.4 -16,-1.2 h -0.2 v -40.2 h 35.4 v 39.7 H 241 c -6.2,1.1 -12.6,1.7 -19,1.7 z"
         fill="#000000"
         opacity="0.2"
         stroke-width="4"
         stroke="none"
         id="path32" /><path
         d="m 222,523.2 c -60.8,0 -110.2,-49.4 -110.2,-110.2 0,-57.4 14.4,-122.5 39.6,-178.8 22.9,-51.3 50.6,-84.4 70.6,-84.4 20,0 47.6,33.1 70.6,84.4 25.2,56.3 39.6,121.5 39.6,178.8 0,60.8 -49.4,110.2 -110.2,110.2 z"
         fill="#3c2c5b"
         opacity="1"
         stroke-width="4"
         stroke="none"
         id="path34" /><path
         d="m 206,522.8 c 11.6,1.7 23.4,1.5 35,-0.5"
         stroke="#000000"
         stroke-width="4"
         stroke-linecap="round"
         stroke-linejoin="round"
         opacity="1"
         fill="none"
         id="path36" /><path
         d="m 209.2,397.9 c 8.8,-12.5 27.6,-15 27.6,-15 0,0 3.9,18.5 -4.9,31 -8.8,12.5 -27.6,15 -27.6,15 0,0 -3.9,-18.5 4.9,-31 z"
         fill="#ffa0dc"
         opacity="1"
         stroke-width="4"
         stroke="none"
         id="path38" /><path
         d="m 236.2,383.7 c 0.2,-0.3 0.7,-0.2 0.8,0.2 l 0.8,4.3 c 0,0.2 2.9,13.2 -5.9,25.7 -7.8,11.1 -23.4,14.3 -26.9,14.9 -0.3,0 -0.4,-0.2 -0.3,-0.5 z"
         fill="#d07fb2"
         opacity="1"
         stroke-width="4"
         stroke="none"
         id="path40" /><path
         d="m 172.4,363.1 c -7.9,-13.1 -2.6,-31.3 -2.6,-31.3 0,0 18.5,3.9 26.4,17 7.9,13.1 2.6,31.3 2.6,31.3 0,0 -18.5,-3.9 -26.4,-17 z"
         fill="#ffa0dc"
         opacity="1"
         stroke-width="4"
         stroke="none"
         id="path42" /><path
         d="m 170.3,332.7 c -0.2,-0.3 0.1,-0.7 0.5,-0.6 l 4.3,1 c 0.2,0.1 13.3,2.7 21.2,15.8 7,11.6 3.7,27.2 2.8,30.6 -0.1,0.3 -0.4,0.3 -0.5,0.1 z"
         fill="#d07fb2"
         opacity="1"
         stroke-width="4"
         stroke="none"
         id="path44" /><path
         d="m 221.6,265.8 c 4.5,-14.6 21.6,-22.9 21.6,-22.9 0,0 9.5,16.4 5,31 -4.5,14.6 -21.6,22.9 -21.6,22.9 0,0 -9.5,-16.4 -5,-31 z"
         fill="#ffa0dc"
         opacity="1"
         stroke-width="4"
         stroke="none"
         id="path46" /><path
         d="m 242.8,243.9 c 0.1,-0.4 0.6,-0.4 0.8,-0.1 l 2.1,3.8 c 0.1,0.2 6.9,11.7 2.4,26.3 -4,13 -17.8,20.9 -20.9,22.5 -0.2,0.1 -0.5,-0.1 -0.4,-0.3 z"
         fill="#d07fb2"
         opacity="1"
         stroke-width="4"
         stroke="none"
         id="path48" /></g><g
       id="g126"><path
         d="m 1371.22,852.51 -12.45,-31.61 c 0,-0.09 0,-0.09 0,-0.19 4,-8.99 4,-22.44 -0.27,-45.6 0,-0.09 0,-0.09 0,-0.18 1.36,-2.28 32.52,-49.61 35.34,-54.06 0.09,-0.18 0.27,-0.18 0.45,0 3,4.36 35.71,52.15 36.98,54.06 0,0 0,0.09 0,0.18 -0.09,29.34 -3.82,57.6 -7,76.68 0,0.09 -0.09,0.45 -0.18,0.45 -3.36,0.36 -52.78,0.09 -52.87,0.27 z"
         fill="#8c5426"
         opacity="1"
         stroke-width="4"
         stroke="none"
         id="path52" /><path
         d="m 1242.21,854.16 c -0.82,-12.63 -5.27,-31.44 -5.45,-32.98 0,-0.09 0,-0.09 0,-0.18 5.54,-10 5.9,-24.81 4.63,-45.79 0,-0.09 0.09,-0.28 0.18,-0.28 3,-0.81 39.25,-7.17 40.79,-7.45 h 0.1 c 1.27,0.37 29.34,7.45 29.34,7.45 -0.73,31.17 -6.09,61.69 -9.36,77.14 0,0.09 -0.09,0.18 -0.18,0.18 -4.45,0.63 -57.33,1.63 -57.42,1.91 l -2.36,0.18 c -0.18,0 -0.27,-0.09 -0.27,-0.18 z"
         fill="#8c5426"
         opacity="1"
         stroke-width="4"
         stroke="none"
         id="path54" /><path
         d="m 1156.63,384.36 c 0,-0.09 -0.09,-0.18 -0.18,-0.18 -1.64,-0.46 -9.64,-4 -18.81,-27.81 v -0.09 c -12.27,-15.35 -20.9,-26.52 -18.99,-29.25 0,0 0,-0.09 0.09,-0.09 3.82,-3.54 11.18,2.72 16.9,8.72 0.18,0.18 0.36,0 0.27,-0.18 -4.18,-7.9 -12.53,-16.54 -9.81,-23.44 0.46,-1.18 1.27,-2.09 2.64,-2.64 0.09,0 0.18,-0.18 0.18,-0.27 -0.73,-5.45 3.54,-7.9 8.17,-5.99 0.09,0 0.19,0 0.28,0 11.9,-7.73 27.25,22.35 36.7,30.25 0.18,0.09 0.36,0 0.45,-0.18 1.82,-11.54 3.37,-21.53 8.18,-21.17 1.91,0 2.64,4 3.64,9.45 0.81,4.72 1.9,10.54 3.99,15.08 4.09,8.72 6.18,18.35 6.09,27.8 v 0.09 c 3.82,7.36 7.72,13.99 10.99,20.9 0.09,0.09 0,0.27 -0.09,0.36 -1.72,0.91 -13.44,6.72 -24.53,11.99 -9.54,4.45 -18.8,7.63 -20.44,8.18 -0.18,0.09 -0.27,0 -0.36,-0.18 -0.73,-2 -4.09,-14.9 -5.36,-21.35 z"
         fill="#8c5426"
         opacity="1"
         stroke-width="4"
         stroke="none"
         id="path56" /><path
         d="m 1174.25,333.57 -1.09,7 c 0,0 -5.72,11.44 -2.63,24.16"
         stroke="#000000"
         stroke-width="4"
         stroke-linecap="round"
         stroke-linejoin="round"
         opacity="1"
         fill="none"
         id="path58" /><path
         d="m 1137.18,303.05 c 10.91,11.53 20.99,26.61 20.99,26.61"
         stroke="#000000"
         stroke-width="4"
         stroke-linecap="round"
         stroke-linejoin="round"
         opacity="1"
         fill="none"
         id="path60" /><path
         d="m 1129.01,309.31 c 4.72,4.73 20.35,26.44 20.35,26.44"
         stroke="#000000"
         stroke-width="4"
         stroke-linecap="round"
         stroke-linejoin="round"
         opacity="1"
         fill="none"
         id="path62" /><path
         d="m 1135.82,335.66 5.36,6.91"
         stroke="#000000"
         stroke-width="4"
         stroke-linecap="round"
         stroke-linejoin="round"
         opacity="1"
         fill="none"
         id="path64" /><path
         d="m 1307.35,346.12 0.09,-7.63 c 0,-0.19 -0.18,-0.28 -0.36,-0.28 -9.36,2.64 -21.54,-0.54 -25.99,-8.45 -7.27,-12.35 1.18,-24.71 1.27,-38.33 0.73,-8 1.73,-17.63 4.91,-24.44 0.55,-1.28 1.18,-2.37 1.91,-3.36 0.09,-0.1 0.09,-0.1 0.18,-0.1 10.08,0.1 18.35,-1.54 34.8,-1.54 1.27,0 5.36,6.45 6.63,6.54 18.9,1 13.35,0 32.98,13.63 0.09,0.09 0.09,0.09 0.09,0.18 -0.27,9.27 -1.91,33.43 -3.09,52.24 -0.27,4 -0.46,7.9 -0.64,11.17 v 0.1 c 0,1.45 -52.96,-0.19 -52.78,0.27 z"
         fill="#8c5426"
         opacity="1"
         stroke-width="4"
         stroke="none"
         id="path66" /><path
         d="m 1337.78,322.58 c -0.09,-0.09 0,-0.27 0.09,-0.37 1.91,-1.18 17.99,-11.44 14.81,-20.8 -2.54,-9.09 -16.8,-5.91 -21.35,-4.09 -0.18,0.09 -0.36,0 -0.36,-0.18 -1.18,-6.09 -0.18,-10.63 1.82,-15.35 0.09,-0.19 -0.09,-0.37 -0.28,-0.37 -12.26,1.91 -22.25,-3.99 -15.62,-14.9 0.09,-0.18 -0.09,-0.45 -0.27,-0.36 -9.36,3.27 -24.63,5.45 -29.17,0.82 -0.09,-0.09 -0.09,-0.18 -0.09,-0.28 3.73,-22.89 74.68,-34.97 76.68,15.18 -0.18,13.72 -1.18,34.43 -3.18,52.24 0,0.09 -0.09,0.27 -0.27,0.27 -16.63,0.09 -22.08,-10.18 -22.81,-11.81 z"
         fill="#010005"
         opacity="1"
         stroke-width="4"
         stroke="none"
         id="path68" /><path
         d="m 1307.44,338.12 c 6.45,-1.9 12.63,-4.36 16.81,-7.08"
         stroke="#000000"
         stroke-width="4"
         stroke-linecap="round"
         stroke-linejoin="round"
         opacity="1"
         fill="none"
         id="path70" /><path
         d="m 1333.24,310.68 6.81,-2.73"
         stroke="#000000"
         stroke-width="4"
         stroke-linecap="round"
         stroke-linejoin="round"
         opacity="1"
         fill="none"
         id="path72" /><path
         d="m 1298.35,299.87 -0.54,1.9 c -0.36,1.09 0,2.27 0.82,3 l 0.18,0.18"
         stroke="#000000"
         stroke-width="4"
         stroke-linecap="round"
         stroke-linejoin="round"
         opacity="1"
         fill="none"
         id="path74" /><path
         d="m 1296.45,313.32 c 1.18,0.91 5.27,1 7.54,-1.82"
         stroke="#000000"
         stroke-width="4"
         stroke-linecap="round"
         stroke-linejoin="round"
         opacity="1"
         fill="none"
         id="path76" /><path
         d="m 1309.89,298.5 c 1.26,0 2.27,-1.01 2.27,-2.27 0,-1.25 -1.01,-2.27 -2.27,-2.27 -1.25,0 -2.27,1.02 -2.27,2.27 0,1.26 1.02,2.27 2.27,2.27 z"
         fill="#010005"
         opacity="1"
         stroke-width="4"
         stroke="none"
         id="path78" /><path
         d="m 1290.9,295.69 c 1.26,0 2.28,-1.02 2.28,-2.27 0,-1.26 -1.02,-2.28 -2.28,-2.28 -1.25,0 -2.27,1.02 -2.27,2.28 0,1.25 1.02,2.27 2.27,2.27 z"
         fill="#010005"
         opacity="1"
         stroke-width="4"
         stroke="none"
         id="path80" /><path
         d="m 1203.42,852.33 c 2.36,-5 7.99,-9.36 15.26,-14.26 3.72,-2.91 7.9,-6.18 12.72,-10.27 2.18,-1.82 3.81,-4 5.18,-6.45 0.09,-0.09 0.27,-0.18 0.36,-0.09 11.45,6.45 19.26,14.54 19.8,33.07 0,0.64 -48.24,-1.45 -53.14,-1.55 -0.18,-0.09 -0.28,-0.27 -0.18,-0.45 z"
         fill="#231f20"
         opacity="1"
         stroke-width="4"
         stroke="none"
         id="path82" /><path
         d="m 1431.27,766.03 c -0.36,-23.35 -6.54,-51.42 -12.63,-71.5 -3.54,-12.54 -6.54,-23.35 -7.72,-34.43 -5.45,-64.51 19.53,-121.11 -23.08,-185.97 -0.09,-0.09 -0.09,-0.09 -0.18,-0.09 h -70.68 c 0,0 0,0 0,0.09 -11.72,0 -21.08,0.09 -22.26,0.09 -0.09,0 -0.18,0.09 -0.18,0.09 -19.08,33.34 -68.78,149.81 -55.42,264.01 0.73,12.81 1.73,24.26 2.45,36.43 0,0.18 0.09,0.28 0.27,0.28 4.37,-0.1 65.6,0.18 69.96,-0.1 0.18,0 0.27,-0.09 0.27,-0.27 0,-5.09 0.18,-8.27 0,-13.26 -0.54,-17.81 -1.72,-32.07 -3.72,-46.25 -6.73,-35.61 3.54,-60.23 22.1,-98.95 0.34,-0.89 0.34,-0.8 0.49,0.34 4.84,42.29 11.11,85.08 19.84,121.15 2.63,12.08 5.81,26.34 7.9,37.06 0,0.09 0.09,0.18 0.27,0.18 h 72.41 c 0.18,0 0.27,-0.09 0.27,-0.27 -0.27,-2.91 -0.27,-5.9 -0.36,-8.63 z"
         fill="#61ccff"
         opacity="1"
         stroke-width="4"
         stroke="none"
         id="path84" /><path
         d="m 1312.8,605.94 c -0.36,21.81 0.91,40.79 1.27,45.52 0,0.27 0.36,0.36 0.46,0.09 4.63,-12.17 10.6,-24.34 15.96,-35.57 -0.07,-0.77 -0.07,-0.86 -0.13,-2.51 -2.66,-22.34 -5.02,-46.14 -7.2,-69.49 0,-0.27 -0.37,-0.36 -0.46,-0.18 -10.72,14.08 -9.54,41.88 -9.9,62.14 z"
         fill="#003852"
         opacity="0.2"
         stroke-width="4"
         stroke="none"
         id="path86" /><path
         d="m 1370.04,473.75 c 19.53,54.06 11.53,136.83 17.8,191.61 6.27,55.15 16.81,63.32 20.26,108.93"
         stroke="#003852"
         stroke-width="4"
         stroke-linecap="round"
         stroke-linejoin="round"
         opacity="1"
         fill="none"
         id="path88" /><path
         d="m 1304.53,474.39 31.98,-0.36 c 0.73,0.09 48.43,-0.18 51.15,0.09 0.09,0 0.18,0 0.18,0.09 12.54,17.08 19.35,41.79 20.26,45.24 0.09,0.18 -0.09,0.37 -0.27,0.37 -5.81,-1.19 -74.86,-15.72 -103.48,-44.88 -0.18,-0.28 -0.09,-0.55 0.18,-0.55 z"
         fill="#003852"
         opacity="0.2"
         stroke-width="4"
         stroke="none"
         id="path90" /><path
         d="m 1326.06,852.33 c -0.18,0 -0.27,-0.27 -0.18,-0.36 5.82,-8.54 18.26,-15.72 27.53,-24.26 2.27,-1.91 3.91,-4.09 5.18,-6.72 0.09,-0.09 0.18,-0.18 0.36,-0.09 11.99,6.26 19.99,17.62 20.63,33.25 0,0.54 -48.25,-1.46 -53.52,-1.82 z"
         fill="#231f20"
         opacity="1"
         stroke-width="4"
         stroke="none"
         id="path92" /><path
         d="m 1323.07,542.8 c 1.99,21.08 4.36,45.88 7.75,72.95"
         stroke="#003852"
         stroke-width="4"
         stroke-linecap="round"
         stroke-linejoin="round"
         opacity="1"
         fill="none"
         id="path94" /><path
         d="m 1406.1,380.54 c -17.17,-24.17 -43.33,-26.98 -46.15,-27.25 -0.18,0 -0.27,-0.09 -0.27,-0.28 0.09,-1.54 0.36,-5.9 0.45,-6.99 0,-0.18 -0.09,-0.27 -0.27,-0.27 h -52.24 c -0.18,0 -0.27,0.09 -0.27,0.27 l -0.09,8.36 c 0,0.18 -0.09,0.27 -0.27,0.27 -0.28,0 -0.73,-0.09 -1.37,-0.09 -36.34,0.09 -57.78,35.07 -81.31,64.14 -0.09,0.18 -0.36,0.09 -0.45,0 -1.46,-3 -7.91,-16.08 -16.45,-32.89 -0.09,-0.09 -0.18,-0.18 -0.27,-0.09 -3.27,1.09 -42.25,18.72 -45.06,20.26 -0.09,0.09 -0.18,0.18 -0.09,0.27 20.98,99.3 74.77,89.58 121.28,26.89 0.09,-0.18 0.37,-0.09 0.46,0.09 1.18,4.64 9.9,38.34 10.63,41.16 0,0.09 0.09,0.18 0.27,0.18 h 57.96 c 0.18,0 0.27,0.09 0.27,0.27 l -1.09,16.63 c 0,0.09 0.1,0.27 0.19,0.27 14.9,3.27 28.43,5.09 39.97,5 90.22,1.45 24.35,-104.21 14.17,-116.2 z"
         fill="#3c2c5b"
         opacity="1"
         stroke-width="4"
         stroke="none"
         id="path96" /><path
         d="m 1278.82,412.26 c 0.18,-0.09 0.27,0 0.36,0.18 0.55,2.54 4.73,20.26 4.37,20.26 -7.18,9.72 -14.99,17.99 -17.54,20.62 -0.18,0.18 -0.54,0 -0.45,-0.27 8.72,-22.8 7.9,-38.7 13.26,-40.79 z"
         fill="#000000"
         opacity="0.2"
         stroke-width="4"
         stroke="none"
         id="path98" /><path
         d="m 1286.63,515.92 c -4.9,-1 -0.81,-9.63 3.82,-16.72 0.18,-0.27 -0.09,-0.54 -0.36,-0.36 -6.27,4.27 -14.09,10.36 -20.35,10.36 -2.46,0.09 -4.18,-1.19 -5.91,-2.73 0,0 -0.09,-0.09 -0.18,-0.09 -4.63,-0.09 -5.63,-3.54 -4.63,-7.72 0,-0.09 0,-0.09 0,-0.19 -3.27,-8.08 7.45,-18.71 16.53,-27.07 7.9,-6.81 16.26,-12.35 22.26,-14.53 15.08,-5.64 40.34,-7.18 56.78,-7.27 0.18,0 0.27,0.09 0.27,0.27 0.19,4.18 -1.9,38.52 -2.99,41.43 0,0.09 -0.19,0.18 -0.28,0.18 -4.72,-1 -10.72,-2.54 -16.08,-4 -0.09,0 -0.18,0 -0.18,0 -1.36,1 -12.08,5.09 -27.16,8.36 -0.09,0 -0.09,0.09 -0.19,0.09 -9.08,12.08 -18.62,19.9 -21.35,19.99 z"
         fill="#8c5426"
         opacity="1"
         stroke-width="4"
         stroke="none"
         id="path100" /><path
         d="m 1307.62,338.03 c 1.27,-0.36 9.72,-3.09 16.72,-7.08 0.27,-0.19 0.54,0.18 0.36,0.36 l -16.9,19.8 c -0.18,0.19 -0.45,0.1 -0.45,-0.18 l 0.18,-12.72 c -0.09,0 0,-0.09 0.09,-0.18 z"
         fill="#000000"
         opacity="0.2"
         stroke-width="4"
         stroke="none"
         id="path102" /><path
         d="m 1325.61,852.42 c 0.09,-0.09 0.09,-0.09 0.18,-0.09 l 98.3,-0.45 c 0.18,0 0.27,0.18 0.27,0.27 -1.18,6.45 -1.99,10.54 -2.45,12.81 0,0.09 -0.09,0.18 -0.27,0.18 -4.82,0 -93.76,0.18 -99.12,0.18 -0.18,0 -0.27,-0.09 -0.27,-0.27 0,-1.36 0.09,-9.09 3.36,-12.63 z"
         fill="#000000"
         opacity="1"
         stroke-width="4"
         stroke="none"
         id="path104" /><path
         d="m 1203.32,852.69 98.76,-0.45 c 0.18,0 0.27,0.18 0.27,0.27 -1.27,6.63 -2.45,11.27 -2.72,12.36 0,0.09 -0.09,0.18 -0.28,0.18 -5.17,0 -93.39,0.27 -99.11,0.27 -0.19,0 -0.28,-0.09 -0.28,-0.27 -0.09,-1.36 -0.18,-8.45 3.09,-12.36 0.18,0 0.27,0 0.27,0 z"
         fill="#000000"
         opacity="1"
         stroke-width="4"
         stroke="none"
         id="path106" /><path
         d="m 1363.86,449.68 16.44,0.18 c 0.18,0 0.27,-0.18 0.27,-0.36 l -12.9,-32.8 c 0,-0.09 -0.18,-0.18 -0.27,-0.18 -9.63,0.27 4.36,21.08 -3.81,32.8 0,0.09 0.09,0.36 0.27,0.36 z"
         fill="#000000"
         opacity="0.2"
         stroke-width="4"
         stroke="none"
         id="path108" /><path
         d="m 1224.31,418.71 6.45,-8.18"
         stroke="#000000"
         stroke-width="4"
         stroke-linecap="round"
         stroke-linejoin="round"
         opacity="1"
         fill="none"
         id="path110" /><path
         d="m 1283.64,432.96 -4.46,-20.53"
         stroke="#000000"
         stroke-width="4"
         stroke-linecap="round"
         stroke-linejoin="round"
         opacity="1"
         fill="none"
         id="path112" /><path
         d="m 1360.13,353.3 c 7.91,1.09 6.27,1.27 11.81,2.54"
         stroke="#000000"
         stroke-width="4"
         stroke-linecap="round"
         stroke-linejoin="round"
         opacity="1"
         fill="none"
         id="path114" /><path
         d="m 1367.76,416.7 13,33.16"
         stroke="#000000"
         stroke-width="4"
         stroke-linecap="round"
         stroke-linejoin="round"
         opacity="1"
         fill="none"
         id="path116" /><path
         d="m 1354.77,449.68 c 8.82,0 23.99,0.18 34.8,0.82"
         stroke="#000000"
         stroke-width="4"
         stroke-linecap="round"
         stroke-linejoin="round"
         opacity="1"
         fill="none"
         id="path118" /><path
         d="m 1259.02,498.57 c 5.45,-6.09 17.89,-17.54 26.71,-23.63"
         stroke="#000000"
         stroke-width="4"
         stroke-linecap="round"
         stroke-linejoin="round"
         opacity="1"
         fill="none"
         id="path120" /><path
         d="m 1264.01,506.2 c 4.09,-4.09 17.63,-15.63 28.53,-23.08"
         stroke="#000000"
         stroke-width="4"
         stroke-linecap="round"
         stroke-linejoin="round"
         opacity="1"
         fill="none"
         id="path122" /><path
         d="m 1291.18,498.1 8.17,-6.9"
         stroke="#000000"
         stroke-width="4"
         stroke-linecap="round"
         stroke-linejoin="round"
         opacity="1"
         fill="none"
         id="path124" /></g><g
       id="g200"><path
         d="M 628.1,680.3 H 261.7 v 195.4 h 366.4 z"
         fill="#595959"
         opacity="1"
         stroke-width="4"
         stroke="none"
         id="path128" /><path
         d="M 1284.1,680.3 H 917.7 v 195.4 h 366.4 z"
         fill="#595959"
         opacity="1"
         stroke-width="4"
         stroke="none"
         id="path130" /><path
         d="m 775.9,381.5 c 1.2,-2.6 3.3,-4.7 6,-6 1.6,-0.8 3.4,-1.2 5.2,-1.2 4.8,0 9.1,2.8 11,6.2 l 25,53.5 -73,2.6 z"
         fill="#ffa0dc"
         opacity="1"
         stroke-width="4"
         stroke="none"
         id="path132" /><path
         d="m 752.6,431.4 4.3,-9.1 h 0.1 c 18.7,-0.2 36.8,-5.9 52.2,-16.6 l 0.5,-0.2 12.2,26 z"
         fill="#53153c"
         opacity="0.2"
         stroke-width="4"
         stroke="none"
         id="path134" /><path
         d="m 1433.9,803.4 c -22.1,0 -40,-18 -40,-40 0,-22.1 18,-40 40,-40 22,0 40,18 40,40 0,22 -17.9,40 -40,40 z"
         fill="#ffa0dc"
         opacity="1"
         stroke-width="4"
         stroke="none"
         id="path136" /><path
         d="m 166.9,753.4 c -22.1,0 -40,-18 -40,-40 0,-22.1 18,-40 40,-40 22,0 40,18 40,40 0,22 -17.9,40 -40,40 z"
         fill="#ffa0dc"
         opacity="1"
         stroke-width="4"
         stroke="none"
         id="path138" /><path
         d="m 152.3,875.7 c -14.2,0 -25.8,-11.6 -25.8,-25.8 v -6.7 c 0,-14.3 11.6,-26 26,-26 h 91.4 c 12.1,0 23.1,7.6 27.4,19 h 39.9 c 0,0 -1.1,11.9 -1.1,17.7 v 21.7 z"
         fill="#ff4f32"
         opacity="1"
         stroke-width="4"
         stroke="none"
         id="path140" /><path
         d="M 1231.7,875.7 V 854 c 0,-5.8 -0.3,-11.7 -1,-17.5 v -0.3 l 26.9,0.1 c 3,-11.2 13.2,-19 24.8,-19 h 165.8 c 14.2,0 25.8,11.6 25.8,25.8 v 6.8 c 0,14.2 -11.6,25.8 -25.8,25.8 z"
         fill="#ff4f32"
         opacity="1"
         stroke-width="4"
         stroke="none"
         id="path142" /><path
         d="m 1230.8,837.5 c -3.7,-32 -18.3,-62.1 -41,-84.9 -22.7,-22.8 -52.9,-37.3 -84.9,-41 -5.5,-0.6 -11.1,-1 -16.7,-1 -72.7,0 -133.7,54.5 -142.1,126.8 l -350.3,0.2 v -0.2 c -3.7,-31.8 -18.1,-61.8 -40.7,-84.5 -22.5,-22.7 -52.4,-37.4 -84.2,-41.3 -5.9,-0.7 -11.8,-1.1 -17.7,-1.1 -72.2,0 -133.2,54.1 -142.1,125.8 l -144.4,0.2 V 658.9 c 0,-39.6 32.2,-71.8 71.8,-71.8 h 63.3 L 446.2,462.2 c 22.9,-19.8 52.3,-30.8 82.6,-30.8 h 331.7 c 27.9,0 54.2,10.8 74.1,30.3 l 127.3,125.3 265.3,31.2 c 23.7,2.9 42.6,20.6 46.9,44.1 l 24.7,21.6 c 23.4,3.6 40.3,23.4 40.3,47.1 v 106.7 z"
         fill="#ffc930"
         opacity="1"
         stroke-width="4"
         stroke="none"
         id="path144" /><path
         d="m 1439.1,803.1 -0.2,-72 c 0,-2.6 0,-5.3 -0.4,-7.7"
         stroke="#1b1b1b"
         stroke-width="4"
         stroke-linecap="round"
         stroke-linejoin="round"
         opacity="1"
         fill="none"
         id="path146" /><path
         d="m 1165.96,931.56 c 42.84,-42.84 42.84,-112.3 0,-155.14 -42.84,-42.84 -112.3,-42.84 -155.14,0 -42.84,42.84 -42.84,112.3 0,155.14 42.84,42.84 112.3,42.84 155.14,0 z"
         fill="#231f20"
         opacity="1"
         stroke-width="4"
         stroke="none"
         id="path148" /><path
         d="m 1088.4,886.5 c 17.95,0 32.5,-14.55 32.5,-32.5 0,-17.95 -14.55,-32.5 -32.5,-32.5 -17.95,0 -32.5,14.55 -32.5,32.5 0,17.95 14.55,32.5 32.5,32.5 z"
         fill="#595959"
         opacity="1"
         stroke-width="4"
         stroke="none"
         id="path150" /><path
         d="m 453.4,963.7 c 60.58,0 109.7,-49.11 109.7,-109.7 0,-60.59 -49.12,-109.7 -109.7,-109.7 -60.59,0 -109.7,49.11 -109.7,109.7 0,60.59 49.11,109.7 109.7,109.7 z"
         fill="#231f20"
         opacity="1"
         stroke-width="4"
         stroke="none"
         id="path152" /><path
         d="m 453.4,886.5 c 17.95,0 32.5,-14.55 32.5,-32.5 0,-17.95 -14.55,-32.5 -32.5,-32.5 -17.95,0 -32.5,14.55 -32.5,32.5 0,17.95 14.55,32.5 32.5,32.5 z"
         fill="#595959"
         opacity="1"
         stroke-width="4"
         stroke="none"
         id="path154" /><path
         d="M 596.7,875.7 V 854 c 0,-5.8 -0.4,-11.7 -1.1,-17.5 v -0.2 h 350.6 c 0,0.1 -1.1,11.9 -1.1,17.7 v 21.7 z"
         fill="#ff4f32"
         opacity="1"
         stroke-width="4"
         stroke="none"
         id="path156" /><path
         d="m 316.7,630.5 h 34.5 c 10.4,0 18.8,8.4 18.8,18.8 v 34.5 c 0,10.4 -8.4,18.8 -18.8,18.8 h -34.5 c -10.4,0 -18.8,-8.4 -18.8,-18.8 v -34.5 c 0,-10.4 8.4,-18.8 18.8,-18.8 z"
         stroke="#1b1b1b"
         stroke-width="4"
         stroke-linecap="round"
         stroke-linejoin="round"
         opacity="1"
         fill="none"
         id="path158" /><path
         d="M 751.7,626.7 V 461.3 h 94.1 c 18,0 35,7 47.8,19.7 l 121,117.7 c 4.9,4.7 6.3,11.6 3.7,17.8 -2.5,6.3 -8.3,10.2 -15.1,10.2 z"
         fill="#f7f6f5"
         opacity="1"
         stroke-width="4"
         stroke="none"
         id="path160" /><path
         d="m 488,626.7 c -11.2,0 -21.1,-6.2 -26.1,-16.2 -5,-10 -3.8,-21.7 3,-30.6 l 67.3,-87.6 c 14.9,-19.4 38.5,-31 63,-31 h 122.9 v 165.4 z"
         fill="#f7f6f5"
         opacity="1"
         stroke-width="4"
         stroke="none"
         id="path162" /><path
         d="m 460.5,607.1 c -3.3,-9.3 -1.7,-19.5 4.4,-27.2 l 67.3,-87.6 c 14.9,-19.4 38.5,-31 63,-31 h 122.9 v 19.4 H 595.2 c -24.4,0 -47.8,11.5 -62.7,30.9 l -67.3,87.6 c -1.9,2.4 -3.3,5.1 -4.4,8 l -0.2,0.5 z"
         fill="#1b1b1b"
         opacity="0.2"
         stroke-width="4"
         stroke="none"
         id="path164" /><path
         d="m 1016.4,619.4 c -0.6,-0.9 -1.3,-1.7 -2.1,-2.5 l -121,-117.7 c -12.7,-12.6 -29.6,-19.5 -47.5,-19.5 h -94.1 v -18.4 h 94.1 c 18,0 35,7 47.8,19.7 l 121,117.7 c 5.7,5.5 6.6,14.2 2.2,20.8 l -0.2,0.2 z"
         fill="#1b1b1b"
         opacity="0.2"
         stroke-width="4"
         stroke="none"
         id="path166" /><path
         d="m 949.8,663.5 c -0.8,0 -1.6,0 -2.4,-0.1 -1.5,-0.1 -2.9,-0.4 -4.3,-0.9 -6.8,-2.7 -10.1,-10.4 -7.4,-17.2 l 19.7,-49.2 c 0.6,-1.4 1.3,-2.6 2.3,-3.8 2.5,-2.9 6.1,-4.5 10,-4.5 3.2,0 6.3,1.2 8.7,3.3 14.6,12.7 19.9,31.3 13.5,47.4 -6.2,15.2 -21.9,25 -40.1,25 z"
         fill="#ff4f32"
         opacity="1"
         stroke-width="4"
         stroke="none"
         id="path168" /><path
         d="m 949.9,663.5 c -0.8,0 -1.6,0 -2.4,-0.1 -1.5,-0.1 -2.9,-0.4 -4.3,-0.9 -6.8,-2.7 -10.2,-10.4 -7.5,-17.2 l 1.9,-4.7 h 0.3 c 2.3,0.3 4.7,0.5 7,0.5 5.1,0 10.2,-0.7 15.1,-2.2 12.9,-3.9 24,-12.3 31.2,-23.7 l 0.2,-0.4 0.1,0.5 c 1.9,7.7 1.4,15.7 -1.6,23.1 -6.1,15.3 -21.8,25.1 -40,25.1 z"
         fill="#515151"
         opacity="0.2"
         stroke-width="4"
         stroke="none"
         id="path170" /><path
         d="m 1349.9,762.8 c -7.8,0 -14.2,-6.4 -14.2,-14.2 0,-7.8 6.4,-14.2 14.2,-14.2 h 33.7 c 7.8,0 14.2,6.4 14.2,14.2 0,7.8 -6.4,14.2 -14.2,14.2 z"
         fill="#1b1b1b"
         opacity="0.2"
         stroke-width="4"
         stroke="none"
         id="path172" /><path
         d="m 514.9,680.7 c -7.8,0 -14.2,-6.4 -14.2,-14.2 0,-7.8 6.4,-14.2 14.2,-14.2 h 33.7 c 7.8,0 14.2,6.4 14.2,14.2 0,7.8 -6.4,14.2 -14.2,14.2 z"
         fill="#ff4f32"
         opacity="1"
         stroke-width="4"
         stroke="none"
         id="path174" /><path
         d="m 793.8,680.7 c -7.8,0 -14.2,-6.4 -14.2,-14.2 0,-7.8 6.4,-14.2 14.2,-14.2 h 33.7 c 7.8,0 14.2,6.4 14.2,14.2 0,7.8 -6.4,14.2 -14.2,14.2 z"
         fill="#ff4f32"
         opacity="1"
         stroke-width="4"
         stroke="none"
         id="path176" /><path
         d="m 502.6,673.6 c -1.3,-2.2 -1.9,-4.6 -1.9,-7.1 0,-7.8 6.4,-14.2 14.2,-14.2 h 33.7 c 2.5,0 5,0.7 7.1,1.9 3.3,1.9 5.6,5 6.6,8.6 1,3.6 0.5,7.5 -1.4,10.8 l -0.2,0.3 -0.2,-0.3 c -2.5,-4.3 -7,-6.9 -12,-6.9 h -33.6 c -4.9,0 -9.5,2.7 -12,6.9 l -0.2,0.3 z"
         fill="#515151"
         opacity="0.2"
         stroke-width="4"
         stroke="none"
         id="path178" /><path
         d="m 839.7,673.6 c -2.5,-4.3 -7,-6.9 -12,-6.9 H 794 c -4.9,0 -9.5,2.7 -12,6.9 l -0.2,0.3 -0.2,-0.3 c -1.3,-2.2 -1.9,-4.6 -1.9,-7.1 0,-7.8 6.4,-14.2 14.2,-14.2 h 33.7 c 2.5,0 5,0.7 7.1,1.9 6.8,3.9 9.1,12.6 5.2,19.4 l -0.2,0.3 z"
         fill="#515151"
         opacity="0.2"
         stroke-width="4"
         stroke="none"
         id="path180" /><path
         d="m 310.9,836.5 h -155"
         stroke="#1b1b1b"
         stroke-width="4"
         stroke-linecap="round"
         stroke-linejoin="round"
         opacity="1"
         fill="none"
         id="path182" /><path
         d="m 944.9,836.5 h -349"
         stroke="#1b1b1b"
         stroke-width="4"
         stroke-linecap="round"
         stroke-linejoin="round"
         opacity="1"
         fill="none"
         id="path184" /><path
         d="m 1447.9,837.7 -217.1,-0.2"
         stroke="#1b1b1b"
         stroke-width="4"
         stroke-linecap="round"
         stroke-linejoin="round"
         opacity="1"
         fill="none"
         id="path186" /><path
         d="m 1196.1,662.9 202.7,21"
         stroke="#1b1b1b"
         stroke-width="4"
         stroke-linecap="round"
         stroke-linejoin="round"
         opacity="1"
         fill="none"
         id="path188" /><path
         d="m 1374.1,662.3 -6.5,-7 c -8.1,-6.9 -18.1,-11.3 -28.6,-12.8 l -14.3,-2.1"
         stroke="#1b1b1b"
         stroke-width="4"
         stroke-linecap="round"
         stroke-linejoin="round"
         opacity="1"
         fill="none"
         id="path190" /><path
         d="m 718.1,461.3 16.3,0.2 17.3,-0.2"
         stroke="#1b1b1b"
         stroke-width="4"
         stroke-linecap="round"
         stroke-linejoin="round"
         opacity="1"
         fill="none"
         id="path192" /><path
         d="m 734.4,836.5 v -375"
         stroke="#1b1b1b"
         stroke-width="4"
         stroke-linecap="round"
         stroke-linejoin="round"
         opacity="1"
         fill="none"
         id="path194" /><path
         d="m 1349.9,751.8 c -7.8,0 -14.2,-6.4 -14.2,-14.2 0,-7.8 6.4,-14.2 14.2,-14.2 h 33.7 c 7.8,0 14.2,6.4 14.2,14.2 0,7.8 -6.4,14.2 -14.2,14.2 z"
         fill="#ffa0dc"
         opacity="1"
         stroke-width="4"
         stroke="none"
         id="path196" /><path
         d="m 166.7,673.4 v 80.1"
         stroke="#1b1b1b"
         stroke-width="4"
         stroke-linecap="round"
         stroke-linejoin="round"
         opacity="1"
         fill="none"
         id="path198" /></g><g
       id="g218"><path
         d="m 775.53,696.79 h -65.44 v 150.62 h 65.44 z"
         stroke="#231f20"
         stroke-width="4"
         stroke-linecap="round"
         stroke-linejoin="round"
         opacity="1"
         fill="none"
         id="path202" /><path
         d="m 704.38,709.47 c -6.75,0 -12.15,-5.41 -12.15,-12.16 0,-6.75 5.4,-12.15 12.15,-12.15 h 76.87 c 6.75,0 12.15,5.4 12.15,12.15 0,6.75 -5.4,12.16 -12.15,12.16 z"
         fill="#231f20"
         opacity="1"
         stroke-width="4"
         stroke="none"
         id="path204" /><path
         d="m 684.13,1050.57 c -24.1,0 -43.84,-19.63 -43.84,-43.83 V 839.41 c 0,-24.1 19.64,-43.84 43.84,-43.84 H 801.5 c 24.1,0 43.83,19.64 43.83,43.84 v 167.33 c 0,24.1 -19.63,43.83 -43.83,43.83 z"
         fill="#61ccff"
         opacity="1"
         stroke-width="4"
         stroke="none"
         id="path206" /><path
         d="m 704.9,1027.72 c -15.58,0 -28.25,-12.67 -28.25,-28.25 v -75.82 c 0,-15.58 12.67,-28.26 28.25,-28.26 h 75.83 c 15.58,0 28.25,12.68 28.25,28.26 v 75.82 c 0,15.58 -12.67,28.25 -28.25,28.25 z"
         fill="#38a4d7"
         opacity="0.2"
         stroke-width="4"
         stroke="none"
         id="path208" /><path
         d="m 704.9,1014.22 c -15.58,0 -28.25,-12.67 -28.25,-28.25 v -75.83 c 0,-15.58 12.67,-28.25 28.25,-28.25 h 75.83 c 15.58,0 28.25,12.67 28.25,28.25 v 75.83 c 0,15.58 -12.67,28.25 -28.25,28.25 z"
         fill="#ff4f32"
         opacity="1"
         stroke-width="4"
         stroke="none"
         id="path210" /><path
         d="m 662.31,1074.46 c 12.17,0 22.03,-9.85 22.03,-22.02 0,-12.16 -9.86,-22.02 -22.03,-22.02 -12.16,0 -22.02,9.86 -22.02,22.02 0,12.17 9.86,22.02 22.02,22.02 z"
         fill="#231f20"
         opacity="1"
         stroke-width="4"
         stroke="none"
         id="path212" /><path
         d="m 823.31,1074.46 c 12.17,0 22.02,-9.85 22.02,-22.02 0,-12.16 -9.85,-22.02 -22.02,-22.02 -12.16,0 -22.02,9.86 -22.02,22.02 0,12.17 9.86,22.02 22.02,22.02 z"
         fill="#231f20"
         opacity="1"
         stroke-width="4"
         stroke="none"
         id="path214" /><path
         d="M 676.86,927.38 H 808.77"
         stroke="#230500"
         stroke-width="4"
         stroke-linecap="round"
         stroke-linejoin="round"
         opacity="1"
         fill="none"
         id="path216" /></g><g
       id="g280"><path
         d="m 508.71,432.95 c -2.65,-13.85 -6.53,-34.33 -8.26,-44.11 -2.65,-16.1 -9.68,-41.78 6.42,-57.16 14.27,-13.14 39.94,-16.81 58.59,-9.17 18.13,6.83 22.92,22.82 30.05,44.01 0,0.11 0.1,0.21 0.21,0.21 1.52,0.2 8.25,1.12 8.96,4.28 0.92,3.36 -3.16,8.76 -4.07,9.98 -0.11,0.1 -0.11,0.21 -0.11,0.31 8.67,26.49 4.59,44.73 -21.49,45.54 -3.77,0 -7.24,-0.51 -10.19,-1.53 -0.21,-0.1 -0.41,0.1 -0.41,0.31 0.2,1.42 0.92,5.7 1.02,6.82 0,0.11 -0.1,0.31 -0.2,0.31 l -22.62,5.5 h -0.1 z"
         fill="#8c5426"
         opacity="1"
         stroke-width="4"
         stroke="none"
         id="path220" /><path
         d="m 343.04,1011.07 c -1.63,0 -3.06,-1.02 -3.67,-2.55 l -4.69,-12.95 c -2.34,-6.52 -7.43,-11.92 -13.85,-14.77 l -23.74,-10.19 v -0.31 c 2.55,-11 4.89,-21.8 8.86,-32.19 0,-0.11 0.1,-0.21 0.21,-0.21 2.24,-0.3 25.98,-2.75 47.17,6.42 6.32,2.75 31.99,27.41 34.13,29.45 0.1,0.1 0.1,0.2 0.1,0.3 -2.65,5.3 -5.09,9.17 -6.52,12.13 -0.61,1.12 -20.27,-8.66 -20.27,-8.46 -5.2,-2.45 -11.52,1.32 -11.92,7.03 l -2.04,22.73 c 0,2.14 -1.73,3.77 -3.77,3.57 z"
         fill="#8c5426"
         opacity="1"
         stroke-width="4"
         stroke="none"
         id="path222" /><path
         d="m 545.28,1042.23 c -1.12,0 -2.04,-0.4 -2.85,-1.22 l -9.48,-9.98 c -4.78,-5.1 -11.51,-7.44 -18.54,-7.44 0,0 -26.08,-0.21 -28.83,-0.41 -0.1,0 -0.21,-0.1 -0.31,-0.2 -1.53,-12.13 -2.95,-22.21 -3.46,-34.85 0,-0.1 0.1,-0.3 0.2,-0.3 3.26,-0.82 41.88,-6.73 43.3,-6.93 h 0.1 c 1.43,0.2 40.86,6.42 44.53,6.93 0.2,0 0.3,0.2 0.2,0.3 -0.91,8.05 -1.42,13.45 -1.42,15.69 0,0.1 -0.11,0.21 -0.21,0.31 -3.87,1.42 -19.05,0.1 -18.95,0.2 -3.16,-0.1 -6.11,1.84 -7.54,4.69 -1.02,2.04 -1.22,4.38 -0.51,6.52 l 7.24,21.6 c 1.12,2.44 -0.82,5.09 -3.47,5.09 z"
         fill="#8c5426"
         opacity="1"
         stroke-width="4"
         stroke="none"
         id="path224" /><path
         d="m 712.99,725.98 c -4.38,-0.51 -9.48,-9.48 -15.9,-20.79 -6.72,-11.71 -14.97,-26.49 -25.57,-37.08 -0.1,-0.1 -0.1,-0.31 0,-0.41 2.55,-2.85 37.39,-33.01 40.35,-35.86 0.1,-0.11 0.3,-0.11 0.4,0 14.06,15.38 24.25,29.14 29.75,37.49 6.12,10.6 22.93,38.61 12.23,47.68 -0.1,0 -0.1,0.1 -0.1,0.21 -0.31,3.26 -1.94,7.54 -7.23,7.54 -1.53,0 -3.06,-0.31 -5,-1.02 -0.2,0 -0.2,0 -0.3,0.1 -10.29,6.62 -23.23,-11.21 -27.92,-17.12 -0.31,-0.2 -0.51,0.1 -0.31,0.41 1.02,4.69 4.69,17.22 -0.4,18.85 z"
         fill="#8c5426"
         opacity="1"
         stroke-width="4"
         stroke="none"
         id="path226" /><path
         d="m 661.84,681.66 c -40.04,-35.05 -65.72,-85.18 -69.89,-93.64 -0.11,-0.2 -0.51,-0.2 -0.51,0.11 l -4.38,17.52 c 0,0.1 -0.11,0.2 -0.31,0.2 l -93.74,-0.4 c -0.1,0 -0.1,0 -0.2,0.1 -1.53,1.53 -21.8,23.74 -23.84,25.37 -0.1,0.1 -0.2,0.1 -0.31,0 -57.15,-20.89 -34.74,-80.8 -17.32,-127.87 8.15,-20.58 16.92,-37.39 22.72,-43.81 12.74,-13.96 32.3,-17.83 35.66,-18.34 0.21,0 0.31,-0.2 0.21,-0.3 -0.61,-2.65 -1.02,-5.1 -1.53,-7.54 0,-0.21 0.1,-0.31 0.2,-0.31 4.49,-0.41 56.45,0 60.52,-0.1 0.11,0 0.31,0.1 0.31,0.2 0.2,1.63 1.53,10.09 1.73,11.41 0,0.11 0.1,0.21 0.21,0.21 4.07,0.61 40.85,7.23 58.58,56.03 l 27.61,71.63 c 0,0 0,0.1 0.1,0.1 1.53,1.63 49.62,54.41 53.9,59.1 0.1,0.1 0.1,0.3 0,0.4 -2.75,3.37 -46.26,46.97 -49.62,49.83 0.21,0.2 0,0.1 -0.1,0.1 z"
         fill="#61ccff"
         opacity="1"
         stroke-width="4"
         stroke="none"
         id="path228" /><path
         d="m 468.87,631.02 c -7.75,-2.65 -15.08,-7.03 -20.28,-11.51 -0.1,-0.1 -0.1,-0.31 0,-0.41 1.94,-1.53 13.86,-11.61 15.79,-31.89 -1.63,-43.81 10.4,-47.68 12.33,-48.09 0.21,0 0.31,0.1 0.31,0.2 l 13.45,65.72 c 0,0.1 0,0.2 -0.1,0.2 -1.53,1.63 -19.46,23.95 -21.4,25.68 0.1,0.1 0,0.1 -0.1,0.1 z"
         fill="#081921"
         opacity="0.2"
         stroke-width="4"
         stroke="none"
         id="path230" /><path
         d="m 557.61,605.35 c 18.54,-15.08 9.88,-45.34 20.99,-48.5 0.1,0 0.3,0 0.3,0.2 l 12.64,30.26 c 0,0.1 0,0.1 0,0.21 l -4.48,18.23 c 0,0.1 -0.11,0.21 -0.31,0.21 h -29.04 c -0.2,-0.11 -0.3,-0.41 -0.1,-0.61 z"
         fill="#081921"
         opacity="0.2"
         stroke-width="4"
         stroke="none"
         id="path232" /><path
         d="m 557.92,420.52 10.49,4.49 c 0.1,0 0.2,0.1 0.2,0.2 l 2.04,13.55 c 0,0.31 -0.3,0.51 -0.51,0.21 l -12.33,-18.24 c -0.2,-0.1 0,-0.21 0.11,-0.21 z"
         fill="#000000"
         opacity="0.2"
         stroke-width="4"
         stroke="none"
         id="path234" /><path
         d="m 438.91,539.63 c -39.94,-0.71 -50.53,-47.28 -17.62,-65.11 0.1,-0.1 0.2,-0.3 0.1,-0.4 -12.63,-18.45 -14.47,-40.45 -4.69,-58.89 12.23,-24.97 44.53,-34.24 71.63,-26.29 0.2,0.1 0.41,-0.1 0.41,-0.31 -0.31,-14.97 -2.25,-43.71 17.72,-59.09 23.54,-17.12 65.11,-17.73 79.58,12.12 0.1,0.11 0,0.21 0,0.31 -0.92,1.02 -6.93,7.44 -16.81,7.44 -2.25,0 -4.59,-0.31 -7.03,-0.92 -0.21,-0.1 -0.41,0.2 -0.31,0.41 4.99,9.88 2.95,24.76 -4.58,31.58 -0.11,0.1 -0.21,0.1 -0.31,0 -1.53,-0.81 -11.51,-7.64 -20.58,-7.64 -5.5,0 -9.38,2.55 -11.62,7.64 -6.21,13.35 13.66,26.6 19.87,29.75 0.1,0 0.1,0.11 0.1,0.21 4.79,24.14 -5.5,75.39 -50.94,73.97 -9.07,0 -19.46,-1.84 -30.67,-5.4 -0.1,0 -0.3,0 -0.3,0.1 -1.53,2.75 -13.45,26.39 -23.54,60.42 -0.2,0 -0.3,0.1 -0.41,0.1 z"
         fill="#010005"
         opacity="1"
         stroke-width="4"
         stroke="none"
         id="path236" /><path
         d="m 585.32,389.75 c 1.63,3.37 6.63,3.88 9.17,2.96"
         stroke="#000000"
         stroke-width="4"
         stroke-linecap="round"
         stroke-linejoin="round"
         opacity="1"
         fill="none"
         id="path238" /><path
         d="m 584,372.64 c 1.52,0 2.75,-1.24 2.75,-2.75 0,-1.52 -1.23,-2.75 -2.75,-2.75 -1.52,0 -2.75,1.23 -2.75,2.75 0,1.51 1.23,2.75 2.75,2.75 z"
         fill="#010005"
         opacity="1"
         stroke-width="4"
         stroke="none"
         id="path240" /><path
         d="m 557.92,420.52 c 0,0 6.52,2.96 10.69,4.69"
         stroke="#000000"
         stroke-width="4"
         stroke-linecap="round"
         stroke-linejoin="round"
         opacity="1"
         fill="none"
         id="path242" /><path
         d="m 540.29,387.82 8.35,4.99"
         stroke="#000000"
         stroke-width="4"
         stroke-linecap="round"
         stroke-linejoin="round"
         opacity="1"
         fill="none"
         id="path244" /><path
         d="m 492.4,337.59 c -28.42,0.2 -46.97,-41.37 -23.12,-58.28 13.75,-9.17 32.09,-2.34 41.46,11.41 13.76,19.36 4.89,46.87 -18.34,46.87 z"
         fill="#010005"
         opacity="1"
         stroke-width="4"
         stroke="none"
         id="path246" /><path
         d="m 493.22,1059.86 c -3.47,-12.23 -6.01,-23.94 -7.85,-36.37 0,-0.21 0.11,-0.31 0.31,-0.31 3.16,-0.1 28.73,-0.51 28.73,-0.51 7.13,0 13.96,2.96 18.85,8.15 l 9.48,9.99 c 0.61,0.71 1.52,1.12 2.54,1.12 2.35,0 4.18,-2.35 3.36,-4.59 l -7.23,-21.6 c -1.83,-5.6 2.45,-11.92 8.56,-11.82 0,0 16.3,0.11 18.64,0.11 0.21,0 0.31,0.1 0.31,0.3 0.2,20.28 12.53,26.19 24.96,36.07 8.66,6.83 15.49,11.21 19.77,19.26 0.1,0.2 0,0.4 -0.21,0.4 -7.94,0.41 -118.69,4.59 -120.22,-0.2 z"
         fill="#ffc930"
         opacity="1"
         stroke-width="4"
         stroke="none"
         id="path248" /><path
         d="m 290.67,1011.06 c 1.32,-13.66 3.36,-28.02 6.42,-40.76 0,-0.2 0.2,-0.3 0.41,-0.2 2.85,1.22 23.84,10.49 24.04,10.49 6.42,2.75 11.62,8.56 13.86,14.88 0.2,0.4 4.68,12.94 4.68,13.04 0.51,1.22 1.74,2.14 3.06,2.14 1.94,0.2 3.57,-1.73 3.67,-3.16 0.1,-0.61 2.04,-22.72 2.04,-22.92 0.4,-6.02 7.54,-9.68 12.43,-7.24 0.4,0.21 17.32,7.74 19.56,8.76 0.1,0.11 0.2,0.21 0.1,0.41 -16.91,34.64 9.37,44.22 17.12,71.12 0.1,0.2 -0.1,0.41 -0.31,0.41 -8.86,-0.72 -80.39,-17.53 -107.08,-46.77 0.1,0 0,-0.1 0,-0.2 z"
         fill="#ffc930"
         stroke-linejoin="round"
         opacity="1"
         stroke-width="4"
         stroke="none"
         id="path250" /><path
         d="m 587.97,602.7 c 0,-0.11 -0.1,-0.21 -0.3,-0.21 -2.96,0 -16,-0.1 -33.52,-0.1 -11.11,-0.1 -32,0 -46.97,0.1 -2.55,0 -4.08,0 -4.08,0 -7.13,0 -12.22,0 -13.04,0 -0.1,0 -0.1,0 -0.2,0.1 -58.08,51.46 -60.42,125.43 -95.57,195.93 -11.41,22.52 -37.09,46.87 -54.1,71.93 -14.88,20.79 -26.09,43.1 -34.03,67.35 0,0.1 0,0.31 0.2,0.41 4.69,2.04 76.72,33.82 81.2,35.76 0.1,0.1 0.31,0 0.41,-0.1 7.64,-11.52 9.27,-15.69 18.54,-30.67 24.86,-41.88 47.18,-68.26 70.71,-108.1 8.36,-14.67 16.51,-31.69 24.35,-49.72 0.11,-0.31 0.51,-0.21 0.51,0.1 2.55,25.68 1.23,51.55 -9.17,89.66 -7.33,28.83 -10.9,57.57 -11.41,87.21 -0.1,9.48 -0.3,16.1 0.41,25.37 0,0.11 0.1,0.31 0.3,0.31 5.1,0 82.94,0 87.93,0 0.1,0 0.31,-0.1 0.31,-0.2 5.6,-44.32 16.4,-111.57 22.41,-154.06 14.27,-104.84 1.23,-207.13 -4.89,-231.07 z"
         fill="#ffa0dc"
         opacity="1"
         stroke-width="4"
         stroke="none"
         id="path252" /><path
         d="m 488.94,698.47 c 0,-0.31 -0.41,-0.41 -0.51,-0.1 -14.26,24.04 -7.54,54.4 -6.52,79.57 0.81,27 -3.06,48.91 -4.28,55.22 -0.1,0.31 0.41,0.51 0.51,0.21 8.35,-14.88 16.4,-31.69 23.84,-49.01 v -0.1 c -2.24,-24.76 -9.47,-50.64 -13.04,-85.79 z"
         fill="#91005c"
         opacity="0.2"
         stroke-width="4"
         stroke="none"
         id="path254" /><path
         d="m 488.94,698.47 c 1.53,19.87 10.9,60.21 12.84,86.6"
         stroke="#91005c"
         stroke-width="4"
         stroke-linecap="round"
         stroke-linejoin="round"
         opacity="1"
         fill="none"
         id="path256" /><path
         d="M 591.95,587.82 579.01,556.95"
         stroke="#081921"
         stroke-width="4"
         stroke-linecap="round"
         stroke-linejoin="round"
         opacity="1"
         fill="none"
         id="path258" /><path
         d="m 477.12,539.32 12.94,63.07 97.81,0.2"
         stroke="#081921"
         stroke-width="4"
         stroke-linecap="round"
         stroke-linejoin="round"
         opacity="1"
         fill="none"
         id="path260" /><path
         d="m 483.44,571.62 -11.52,5.3"
         stroke="#081921"
         stroke-width="4"
         stroke-linecap="round"
         stroke-linejoin="round"
         opacity="1"
         fill="none"
         id="path262" /><path
         d="m 375.23,1013.4 -13.55,3.87"
         stroke="#1b1b1b"
         stroke-width="4"
         stroke-linecap="round"
         stroke-linejoin="round"
         opacity="1"
         fill="none"
         id="path264" /><path
         d="m 378.29,1022.87 -9.47,6.63"
         stroke="#1b1b1b"
         stroke-width="4"
         stroke-linecap="round"
         stroke-linejoin="round"
         opacity="1"
         fill="none"
         id="path266" /><path
         d="m 575.64,1025.12 -10.08,7.94"
         stroke="#1b1b1b"
         stroke-width="4"
         stroke-linecap="round"
         stroke-linejoin="round"
         opacity="1"
         fill="none"
         id="path268" /><path
         d="m 582.98,1032.04 -6.11,9.68"
         stroke="#1b1b1b"
         stroke-width="4"
         stroke-linecap="round"
         stroke-linejoin="round"
         opacity="1"
         fill="none"
         id="path270" /><path
         d="m 741.72,723.64 -24.45,-37.5"
         stroke="#000000"
         stroke-width="4"
         stroke-linecap="round"
         stroke-linejoin="round"
         opacity="1"
         fill="none"
         id="path272" /><path
         d="M 753.84,717.01 728.47,676.97"
         stroke="#000000"
         stroke-width="4"
         stroke-linecap="round"
         stroke-linejoin="round"
         opacity="1"
         fill="none"
         id="path274" /><path
         d="m 290.06,1027.05 c -0.1,0 -0.21,-0.1 -0.21,-0.3 0,-1.43 0.72,-12.84 0.82,-15.18 0,-0.21 0.2,-0.31 0.41,-0.21 l 107.08,46.67 c 0.1,0 0.2,0.1 0.2,0.2 0.21,1.22 1.23,9.47 -1.22,15.18 -0.1,0.1 -0.2,0.2 -0.41,0.1 z"
         fill="#1b1b1b"
         stroke-linejoin="round"
         opacity="1"
         stroke-width="4"
         stroke="none"
         id="path276" /><path
         d="m 497.7,1073.51 c -1.32,-3.56 -3.87,-11.51 -4.38,-13.34 -0.1,-0.21 0.1,-0.41 0.31,-0.41 h 119.92 c 0.1,0 0.2,0.1 0.3,0.2 2.14,4.08 3.06,8.76 2.85,13.45 0,0.2 -0.1,0.31 -0.3,0.31 -6.22,0 -113.3,0 -118.39,0 -0.1,0 -0.21,-0.11 -0.31,-0.21 z"
         fill="#1b1b1b"
         opacity="1"
         stroke-width="4"
         stroke="none"
         id="path278" /></g></g><style
     type="text/css"
     id="style348">
	.st0{fill-rule:evenodd;clip-rule:evenodd;fill:#E6E6E6;}
	.st1{filter:url(#Adobe_OpacityMaskFilter);}
	.st2{fill-rule:evenodd;clip-rule:evenodd;fill:#FFFFFF;}
	.st3{mask:url(#mask-2_1_);}
	.st4{fill-rule:evenodd;clip-rule:evenodd;fill:#2C3E50;}
	.st5{filter:url(#Adobe_OpacityMaskFilter_1_);}
	.st6{mask:url(#mask-4_1_);}
	.st7{fill-rule:evenodd;clip-rule:evenodd;fill:#D0C6AC;}
	.st8{filter:url(#Adobe_OpacityMaskFilter_2_);}
	.st9{mask:url(#mask-6_1_);}
	.st10{fill-rule:evenodd;clip-rule:evenodd;fill:#EDB98A;}
	.st11{filter:url(#Adobe_OpacityMaskFilter_3_);}
	.st12{mask:url(#mask-6_2_);fill-rule:evenodd;clip-rule:evenodd;fill-opacity:0.1;}
	.st13{filter:url(#Adobe_OpacityMaskFilter_4_);}
	.st14{mask:url(#react-mask-952_1_);}
	.st15{filter:url(#Adobe_OpacityMaskFilter_5_);}
	.st16{opacity:0.6;mask:url(#react-mask-952_2_);}
	.st17{fill-rule:evenodd;clip-rule:evenodd;fill-opacity:0.16;}
	.st18{fill-rule:evenodd;clip-rule:evenodd;fill-opacity:0.7;}
	.st19{filter:url(#Adobe_OpacityMaskFilter_6_);}
	.st20{mask:url(#react-mask-934_1_);fill-rule:evenodd;clip-rule:evenodd;fill:#FFFFFF;}
	.st21{filter:url(#Adobe_OpacityMaskFilter_7_);}
	.st22{mask:url(#react-mask-934_2_);}
	.st23{fill-rule:evenodd;clip-rule:evenodd;fill:#FF4F6D;}
	.st24{fill-rule:evenodd;clip-rule:evenodd;fill-opacity:0.6;}
	.st25{filter:url(#Adobe_OpacityMaskFilter_8_);}
	.st26{mask:url(#react-mask-925_1_);}
	.st27{fill-rule:evenodd;clip-rule:evenodd;fill:#28354B;}
	.st28{filter:url(#Adobe_OpacityMaskFilter_9_);}
	.st29{mask:url(#react-mask-924_1_);}
	.st30{fill-rule:evenodd;clip-rule:evenodd;fill:#4A312C;}
</style></svg>
